<svg width="131" height="112" viewBox="0 0 131 112" fill="none" xmlns="http://www.w3.org/2000/svg">
<path opacity="0.2" fill-rule="evenodd" clip-rule="evenodd" d="M69.8058 54.6593C69.4345 54.7142 69.0453 54.7102 68.6383 54.6397C68.5633 54.628 68.4848 54.6123 68.4098 54.5927C67.8314 54.4555 67.3101 54.193 66.8816 53.8482C66.8388 53.8756 66.796 53.8991 66.7495 53.9187C66.7353 53.9265 66.721 53.9344 66.7067 53.9422C66.646 53.9736 66.5853 54.001 66.521 54.0245C66.3925 54.0755 66.2604 54.1186 66.1247 54.1577C66.0926 54.1656 66.0605 54.1734 66.0283 54.1773C65.9426 54.1969 65.8534 54.2165 65.7641 54.2244C65.5749 54.2557 65.3785 54.2675 65.175 54.2596C65.175 54.2596 65.175 54.2635 65.1678 54.2596C64.9822 54.2596 64.7858 54.24 64.593 54.2048C64.4252 54.1773 64.261 54.1342 64.1039 54.0872C63.9646 54.0441 63.8289 53.9932 63.7004 53.9383C63.6076 53.8952 63.5147 53.8521 63.4291 53.8051C63.3398 53.7581 63.2541 53.7071 63.1684 53.6562C63.0042 53.5504 62.8471 53.4328 62.7007 53.3035C62.6293 53.2408 62.5614 53.1742 62.4972 53.1076C62.208 52.8059 61.9795 52.465 61.8366 52.0966C61.6867 51.7204 61.626 51.3208 61.6688 50.9172C61.6724 50.8662 61.6795 50.8192 61.6903 50.7722C61.7081 50.6742 61.7295 50.5762 61.7617 50.4822C61.7724 50.4391 61.7902 50.3999 61.8045 50.3568C61.8045 50.3568 61.8045 50.3607 61.8045 50.3568C61.6688 50.3999 61.526 50.4313 61.3796 50.4469C61.3189 50.4509 61.2582 50.4587 61.194 50.4626C61.1261 50.4665 61.0583 50.4705 60.9905 50.4705C60.4942 50.4705 59.9657 50.3607 59.448 50.1413C59.2517 50.059 59.0589 49.961 58.8696 49.8435C58.684 49.7338 58.4983 49.6045 58.3162 49.4634H58.3126C58.1948 49.3654 58.0734 49.2636 57.9592 49.1538C56.556 47.8372 56.0061 45.9681 56.5131 44.6084C56.6095 44.3419 56.7488 44.0951 56.9309 43.8756C56.963 43.8365 56.9987 43.7973 57.0344 43.7659C57.0523 43.7385 57.0701 43.7228 57.088 43.7071C57.1273 43.664 57.1737 43.6249 57.2165 43.5896C57.2629 43.5426 57.3129 43.5034 57.3629 43.472C57.4236 43.425 57.4843 43.3858 57.5486 43.3506C57.5486 43.3506 57.5628 43.3388 57.57 43.3349C57.57 43.3349 57.5771 43.3271 57.5807 43.3271L57.6235 43.3035C57.5843 43.2252 57.5521 43.1468 57.5164 43.0684C57.42 42.8333 57.3415 42.5865 57.2951 42.3435C57.2951 42.3435 57.2951 42.3435 57.2915 42.3435V42.3514C57.2451 42.3945 57.1987 42.4336 57.1522 42.4728C57.1451 42.4807 57.138 42.4885 57.1308 42.4885C57.0951 42.5198 57.0594 42.5473 57.0237 42.5708C57.0059 42.5825 56.9916 42.5943 56.9737 42.61C56.9452 42.6257 56.9202 42.6413 56.8916 42.6609C56.8059 42.7119 56.7131 42.7589 56.6203 42.802C56.5381 42.8372 56.456 42.8725 56.3703 42.8999C55.7312 43.1037 54.985 43.0645 54.2531 42.7824C54.2531 42.7824 54.2459 42.7824 54.2424 42.7824C53.9781 42.6805 53.7139 42.5473 53.4569 42.3788C53.1926 42.2103 52.9356 42.0065 52.6964 41.7675C52.575 41.6499 52.4607 41.5246 52.3536 41.3952C52.3465 41.3835 52.3358 41.3757 52.3286 41.3639C52.1965 41.4188 52.0644 41.4658 51.9359 41.5128C51.7681 41.5755 51.6038 41.6264 51.436 41.6695C51.4253 41.6774 51.4146 41.6774 51.4039 41.6774C51.3182 41.7048 51.2325 41.7283 51.1432 41.7479C51.0147 41.7793 50.8826 41.8106 50.7505 41.8341C50.2613 41.9242 49.8257 41.7518 49.4044 41.4736C49.333 41.4305 49.2652 41.3796 49.1973 41.3326C49.1545 41.3012 49.1152 41.2699 49.0724 41.2385C48.9403 41.1405 48.8117 41.0347 48.6796 40.9289C48.6118 40.8702 48.544 40.8153 48.4726 40.7605C48.369 40.6742 48.2619 40.588 48.1512 40.5097H48.1476C48.1119 40.4783 48.0762 40.4509 48.037 40.4235C48.0048 40.4 47.9727 40.3804 47.9406 40.3568C47.8656 40.3059 47.7942 40.2589 47.7192 40.2158C47.5764 40.1296 47.43 40.0551 47.2765 39.9924C47.1908 39.9611 47.1015 39.9297 47.0122 39.9062C46.9765 39.8984 46.9408 39.8866 46.9051 39.8788C46.8766 39.871 46.8516 39.8631 46.8266 39.8592H46.8194C46.8194 39.8592 46.8052 39.8514 46.798 39.8514C46.7837 39.8474 46.7695 39.8435 46.7587 39.8435C46.7516 39.8396 46.7445 39.8396 46.7373 39.8357C46.6873 39.8239 46.6409 39.8122 46.5945 39.8043C46.5909 39.8043 46.5838 39.8043 46.5802 39.8043H46.5695C46.5302 39.7926 46.491 39.7848 46.4553 39.7808C46.4231 39.773 46.3946 39.7652 46.366 39.7612C46.3374 39.7534 46.3089 39.7456 46.2839 39.7416C46.2517 39.7338 46.2196 39.7299 46.1875 39.726H46.1696C46.1482 39.7181 46.1232 39.7142 46.1018 39.7103C46.0625 39.7064 46.0232 39.6985 45.9875 39.6907C45.8911 39.675 45.8019 39.6594 45.7126 39.6437C45.5341 39.6163 45.3699 39.5888 45.2128 39.5575C45.1985 39.5536 45.1806 39.5496 45.1663 39.5457C45.1056 39.534 45.0485 39.5222 44.9914 39.5065C44.9771 39.5065 44.9628 39.5026 44.9485 39.4987C44.8129 39.4674 44.6879 39.4321 44.5629 39.3851C44.5558 39.3811 44.5487 39.3811 44.5415 39.3772C44.4987 39.3616 44.4523 39.3459 44.4094 39.3224C44.3987 39.3224 44.3844 39.3106 44.3737 39.3028C44.3237 39.2832 44.2809 39.2597 44.2345 39.2322C44.2202 39.2322 44.2095 39.2205 44.1952 39.2127C43.9738 38.9305 43.7489 38.6445 43.5239 38.3584C43.2276 37.9783 42.9313 37.5982 42.6278 37.2181C42.6278 37.2181 42.6278 37.2103 42.6206 37.2064C42.0886 36.5285 41.5566 35.8545 41.0282 35.1766C40.9532 35.0865 40.8818 34.9924 40.8104 34.9023C39.6179 33.3819 38.4289 31.8655 37.2614 30.3726C36.9829 30.0199 36.708 29.6672 36.4331 29.3146C35.6833 28.3545 34.9406 27.4063 34.2123 26.4737C33.9338 26.1171 33.6553 25.7605 33.3804 25.4078C33.2554 25.2511 33.1376 25.0944 33.0162 24.9415C32.8377 24.7143 32.6663 24.4909 32.4913 24.2676C32.4699 24.2401 32.4485 24.2166 32.4306 24.1892C32.4021 24.1539 32.3735 24.1187 32.3485 24.0834L32.3307 24.0638C32.2914 24.0129 32.2521 23.9619 32.2128 23.911C32.0807 23.7425 31.9486 23.574 31.8201 23.4055C31.7987 23.382 31.7808 23.3546 31.7594 23.331C31.6237 23.1547 31.4845 22.9784 31.3488 22.802C31.2524 22.6806 31.1596 22.5591 31.0632 22.4376C30.8882 22.2104 30.7133 21.9831 30.5383 21.7597C30.0956 21.1916 29.66 20.6312 29.2351 20.0826C29.0637 19.8593 28.8924 19.6398 28.721 19.4204C27.4035 17.7159 26.1753 16.125 25.0684 14.6869C24.2615 13.6328 23.5153 12.6571 22.8512 11.7754C20.5875 8.78956 19.2094 6.8891 19.1844 6.66182C19.1522 6.38753 19.4057 5.86637 19.8342 5.21982C19.877 5.15321 19.9234 5.08659 19.9699 5.01998H19.9734C20.634 4.06387 21.6265 2.87657 22.6548 1.78723C22.7976 1.83033 22.9405 1.87736 23.0797 1.92438C23.3153 1.99883 23.551 2.08112 23.7866 2.16341C23.7902 2.16341 23.7974 2.16341 23.8009 2.16732C23.8009 2.16732 23.8021 2.16732 23.8045 2.16732C24.1615 2.2888 24.5114 2.41811 24.8649 2.55525C24.9435 2.5866 25.022 2.61795 25.1006 2.6493C25.3148 2.7355 25.529 2.82171 25.7432 2.91184C26.1217 3.06857 26.4966 3.23315 26.8679 3.40556C27.05 3.48785 27.2321 3.57406 27.4142 3.66027C27.4856 3.69553 27.557 3.7308 27.6249 3.76606C27.6463 3.7739 27.6713 3.78566 27.6927 3.79741C27.7998 3.85227 27.9069 3.90321 28.014 3.95807C28.0854 3.99334 28.1604 4.03252 28.2318 4.07171C28.2818 4.09522 28.3282 4.11873 28.3782 4.14616C28.5567 4.23628 28.7388 4.33424 28.9173 4.43221C28.9245 4.43221 28.9316 4.43221 28.9388 4.44396C29.0673 4.51058 29.1958 4.58111 29.3244 4.65556C29.585 4.79663 29.8421 4.94553 30.0992 5.09443C30.2384 5.17672 30.3812 5.26292 30.5205 5.34913C30.7418 5.48236 30.9632 5.61559 31.1846 5.75665C31.2096 5.77233 31.2345 5.788 31.2595 5.80368C31.3559 5.86637 31.4523 5.92907 31.5487 5.99176C31.8879 6.20728 32.2271 6.43455 32.5592 6.66182C32.5663 6.66182 32.5735 6.66966 32.5806 6.6775C32.9234 6.90869 33.2625 7.14771 33.5982 7.39066C33.6731 7.4416 33.7446 7.49254 33.8195 7.5474C33.9266 7.68455 34.0373 7.82561 34.148 7.96668C34.1659 7.99019 34.1837 8.01762 34.2051 8.04113C34.3337 8.20962 34.4658 8.37812 34.6015 8.55053C34.7871 8.78956 34.9764 9.03642 35.1692 9.28329C35.2156 9.34598 35.2656 9.40868 35.3155 9.47137C35.3941 9.57326 35.4762 9.67906 35.5583 9.78485C35.8297 10.1375 36.1046 10.4941 36.3831 10.8546C36.5188 11.027 36.6509 11.2033 36.7866 11.3797C36.8365 11.4385 36.883 11.5011 36.9294 11.5638C37.0222 11.6814 37.1115 11.799 37.2043 11.9165C37.265 11.9988 37.3293 12.0811 37.3935 12.1634C37.4185 12.1947 37.4435 12.2261 37.4649 12.2574C37.5042 12.3084 37.5435 12.3554 37.5828 12.4063C37.6506 12.4964 37.7184 12.5826 37.7863 12.6728C37.7934 12.6806 37.8006 12.6924 37.8113 12.7002L37.9184 12.8413C38.0648 13.0333 38.2112 13.2214 38.3575 13.4134C38.5539 13.6641 38.7503 13.9189 38.9502 14.1775C39.0109 14.2598 39.0752 14.342 39.1359 14.4243C39.4608 14.8397 39.7857 15.2629 40.1142 15.69C40.132 15.7135 40.1499 15.7331 40.1642 15.7566C40.3141 15.9486 40.4605 16.1406 40.6069 16.3326C40.8818 16.6892 41.1603 17.0497 41.4388 17.4102V17.4141C41.4388 17.4141 41.446 17.4259 41.4495 17.4298C41.7744 17.8569 42.1029 18.284 42.4314 18.7112C42.4171 18.719 42.4064 18.7307 42.3921 18.7425C42.3207 18.7934 42.2529 18.8444 42.1815 18.9032C42.0958 18.9659 42.0101 19.0364 41.9244 19.1069C41.8387 19.1735 41.7566 19.2441 41.678 19.3146C41.4352 19.5223 41.196 19.7417 40.9711 19.969C40.8604 20.0826 40.7497 20.1963 40.6462 20.3138C40.5248 20.447 40.4034 20.5842 40.2927 20.7253C40.2034 20.8311 40.1213 20.9369 40.0428 21.0466C39.9607 21.1524 39.8857 21.2582 39.8143 21.3679C39.7821 21.411 39.75 21.458 39.725 21.5011C39.7072 21.5285 39.6893 21.5599 39.6715 21.5873C39.6215 21.6618 39.5751 21.7362 39.5358 21.8107C39.4894 21.8851 39.4465 21.9596 39.4072 22.0379C39.3216 22.1908 39.2466 22.3436 39.1752 22.5003C39.0859 22.6923 39.0181 22.8961 38.9431 23.0959C38.8895 23.237 38.836 23.382 38.7753 23.5191H38.7896C38.9002 23.5191 39.0074 23.5191 39.1145 23.5191C39.1573 23.5231 39.1966 23.5231 39.2394 23.5231C39.5643 23.5231 39.8714 23.5348 40.1499 23.5191C40.2034 23.5191 40.2534 23.5191 40.307 23.5191C40.5819 23.5074 40.8568 23.5074 41.1353 23.5191C41.1889 23.5191 41.246 23.5191 41.3031 23.5191C41.371 23.5231 41.4424 23.527 41.5102 23.5309C41.6816 23.5387 41.853 23.5505 42.0208 23.5622C42.1029 23.5662 42.1815 23.574 42.2636 23.5818C42.767 23.6171 43.2704 23.6641 43.7739 23.6994C43.8524 23.7033 43.9345 23.7111 44.0167 23.719C44.1095 23.5818 44.2059 23.4447 44.3059 23.3115C44.3916 23.1978 44.4772 23.0881 44.5665 22.9784C44.5665 22.9784 44.5665 22.9745 44.5737 22.9705C44.6701 22.853 44.7665 22.7394 44.87 22.6257C44.9593 22.5238 45.0521 22.4259 45.1449 22.3279C45.1556 22.3162 45.1699 22.3044 45.1806 22.2926C45.2377 22.371 45.2984 22.4455 45.3591 22.5238H45.3627C45.4305 22.6179 45.4984 22.7119 45.5698 22.802C45.6591 22.9196 45.7519 23.0411 45.8447 23.1586C45.9161 23.2566 45.9911 23.3506 46.0661 23.4486C46.3196 23.7856 46.5767 24.1187 46.8337 24.4556C46.9908 24.6594 47.1444 24.8632 47.305 25.0708C47.3764 25.1649 47.4478 25.2589 47.5192 25.353C47.5514 25.3961 47.5871 25.4392 47.6192 25.4823C47.9548 25.9212 48.2905 26.36 48.6261 26.7989C48.751 26.9635 48.876 27.1241 49.001 27.2887C49.0367 27.3397 49.076 27.3906 49.1152 27.4415C49.4116 27.8255 49.7043 28.2135 50.0007 28.5975C50.0578 28.6719 50.1114 28.7464 50.1721 28.8208C50.2399 28.9149 50.3113 29.005 50.3863 29.099C50.397 29.1147 50.4077 29.1343 50.4256 29.15C50.5006 29.248 50.572 29.342 50.6469 29.44C50.7433 29.5693 50.8397 29.6947 50.9361 29.8201H50.9397C51.1111 30.0473 51.2825 30.2707 51.4503 30.494C51.6074 30.6978 51.7609 30.9016 51.918 31.1014C51.9609 31.1641 52.0073 31.2229 52.0537 31.2816C52.2251 31.5089 52.4 31.7362 52.5714 31.9635C52.5857 31.9831 52.6 31.9987 52.6107 32.0144C52.7285 32.1711 52.8499 32.3279 52.9677 32.4807C52.9713 32.4885 52.9784 32.4964 52.982 32.5003C53.0391 32.5747 53.0962 32.6492 53.1534 32.7236C53.314 32.9392 53.4783 33.1508 53.639 33.3624C53.6532 33.382 53.6639 33.3976 53.6782 33.4133C53.8282 33.6131 53.9817 33.813 54.1317 34.0089C54.2352 34.1461 54.3352 34.2793 54.4387 34.4125C54.5066 34.5026 54.578 34.5967 54.6458 34.6868L54.6601 34.7025C54.6887 34.7417 54.7172 34.7808 54.7494 34.82C54.8136 34.9062 54.8779 34.9924 54.9457 35.0787C54.9493 35.0787 54.9529 35.0865 54.9564 35.0943C54.9957 35.1453 55.035 35.1962 55.0743 35.2471C55.1314 35.3216 55.1885 35.4 55.2456 35.4744C55.392 35.6664 55.5348 35.8545 55.6812 36.0465C55.6955 36.0622 55.7098 36.0818 55.7205 36.1014C55.849 36.266 55.974 36.4305 56.0954 36.5912C56.1418 36.65 56.1847 36.7048 56.2239 36.7597C56.2704 36.8185 56.3132 36.8772 56.356 36.9321C56.4096 37.0026 56.4632 37.0732 56.5167 37.1437C56.5346 37.1672 56.5524 37.1907 56.5738 37.2142C56.5988 37.2534 56.6274 37.2887 56.6595 37.3279C56.8166 37.5355 56.9773 37.7471 57.1344 37.9548C57.1665 37.9979 57.2022 38.0449 57.2344 38.088C57.2808 38.1468 57.3236 38.2017 57.3665 38.2605C57.4772 38.4054 57.5878 38.5543 57.6985 38.6993C57.7878 38.8169 57.877 38.9305 57.9627 39.0481C58.0484 39.1578 58.1305 39.2636 58.2127 39.3733C58.2555 39.4282 58.2984 39.483 58.3376 39.5379C58.3483 39.5536 58.3591 39.5653 58.3698 39.581C58.6304 39.918 58.8839 40.255 59.1374 40.588C59.6801 41.3012 60.2121 42.0026 60.7369 42.6923C60.7905 42.7628 60.8405 42.8294 60.8941 42.8999C60.9619 42.9901 61.0297 43.0763 61.094 43.1664C61.2332 43.3467 61.3689 43.523 61.5046 43.6993C61.6438 43.8874 61.7867 44.0716 61.9223 44.2557C62.0223 44.385 62.1187 44.5104 62.2151 44.6358C62.2222 44.6476 62.2294 44.6554 62.2365 44.6672C62.2758 44.7181 62.3115 44.7651 62.3472 44.8161C62.4829 44.9885 62.6114 45.1609 62.74 45.3333C62.8685 45.4979 62.9935 45.6625 63.1184 45.827C63.2612 46.0151 63.4005 46.1993 63.5397 46.3835C64.0753 47.0927 64.5966 47.7785 65.1036 48.4407C65.1321 48.4838 65.1643 48.523 65.1964 48.5661C65.2535 48.6444 65.3142 48.7189 65.3714 48.7973C65.5499 49.0324 65.7284 49.2675 65.9034 49.4987C65.9498 49.5574 65.9962 49.6201 66.039 49.6789C66.0747 49.722 66.1069 49.7651 66.1354 49.8082C66.1497 49.8239 66.164 49.8435 66.1783 49.8592C66.2247 49.9219 66.2711 49.9846 66.3211 50.0473C66.3639 50.1021 66.4068 50.1609 66.4461 50.2157C66.5317 50.3255 66.6139 50.4352 66.6924 50.541C66.8174 50.7016 66.9388 50.8623 67.0602 51.023C67.0852 51.0543 67.1102 51.0896 67.1352 51.1209C67.2815 51.3168 67.4279 51.5128 67.5743 51.7009C67.735 51.9164 67.8956 52.1241 68.0492 52.3317C68.3991 52.7941 68.7347 53.2369 69.0489 53.6562H69.0525C69.2488 53.9148 69.4381 54.1617 69.6202 54.4046C69.6844 54.4869 69.7451 54.5692 69.8094 54.6515C69.8094 54.6515 69.8094 54.6541 69.8094 54.6593H69.8058Z" fill="black"/>
<path fill-rule="evenodd" clip-rule="evenodd" d="M70.2247 59.5455L69.9926 59.7649L69.6641 60.0706L68.5251 61.1403L66.897 62.6646L66.3615 63.1662L65.5795 63.8989L64.8512 64.5807L64.1835 65.2116L62.5875 66.7045L62.2412 66.2578L60.4024 63.895L56.2643 58.5776L53.5222 55.051L53.4472 54.9569L53.1295 54.5455L52.5725 53.8284L51.3193 52.2218L48.9699 49.1968L48.0166 47.9742L47.2276 46.9593L44.8675 43.9225L43.3715 42.0024L43.118 41.6772L41.5899 39.7101L40.7223 38.5973L39.2405 36.689L38.2979 35.4782L36.4735 33.1349L34.6668 30.8113L31.3856 26.595L30.6715 25.678L30.618 25.6075L29.8682 24.6396L29.5397 24.2204L29.2291 23.8246L29.0577 23.6012L28.7649 23.2251L28.1044 22.3748L28.0473 22.3003L26.2156 19.9492L25.6015 19.1616L25.4266 18.9304L25.1552 18.5856L25.041 18.4406L24.6946 17.9939L24.0055 17.1044L16.4684 7.41791L18.9355 4.22827L18.9463 4.21651L21.8383 0.474362C21.8383 0.474362 21.8454 0.470443 21.849 0.466525C21.8704 0.446933 21.9561 0.368563 22.0882 0.286275C22.1097 0.27452 22.1311 0.258845 22.1561 0.247089C22.4738 0.0550838 22.9915 -0.140841 23.4914 0.14129C23.5307 0.164801 23.9056 0.619346 24.5625 1.43831C24.8874 1.84191 25.2802 2.33172 25.7336 2.90382C26.2049 3.49551 26.7441 4.17341 27.3403 4.92576C27.5367 5.17262 27.7402 5.43124 27.9473 5.69378C27.9937 5.75256 28.0401 5.80742 28.0865 5.86619C28.0901 5.87403 28.0972 5.88187 28.1008 5.8897C28.7578 6.7165 29.4647 7.61384 30.2252 8.57386C30.2645 8.62088 30.3002 8.66399 30.3359 8.71101C30.5287 8.95788 30.7251 9.20474 30.925 9.45944C30.9643 9.50646 31 9.55348 31.0321 9.60051C31.0571 9.62794 31.0786 9.65145 31.0964 9.67887C31.1571 9.75333 31.2142 9.82386 31.2714 9.89831C31.4392 10.1138 31.6105 10.3293 31.7819 10.5488C31.8605 10.6428 31.9355 10.7408 32.014 10.8387C32.0997 10.9485 32.1854 11.0582 32.2711 11.1679C32.4067 11.3403 32.546 11.5127 32.6817 11.6891C32.8066 11.8419 32.928 12.0025 33.053 12.1593C33.0923 12.2063 33.128 12.2533 33.1672 12.3043C33.3315 12.5119 33.4993 12.7235 33.6671 12.9391C33.7421 13.0331 33.8171 13.1271 33.892 13.2212C34.042 13.4171 34.1991 13.613 34.3562 13.809C34.3741 13.8364 34.3955 13.8599 34.4169 13.8873C34.4776 13.9657 34.5383 14.048 34.6061 14.1264C34.674 14.2165 34.7418 14.3027 34.8132 14.3928C34.8811 14.4829 34.9525 14.5731 35.0239 14.6632C35.1131 14.7729 35.1988 14.8826 35.2881 14.9963C35.3095 15.0237 35.3309 15.0511 35.3559 15.0825C35.4416 15.1922 35.5273 15.3019 35.6166 15.4155C35.7272 15.5566 35.8415 15.7016 35.9557 15.8426C35.97 15.8622 35.9879 15.8858 36.0022 15.9053C36.0593 15.9759 36.1129 16.0464 36.17 16.1169C36.2985 16.2815 36.4306 16.45 36.5627 16.6185C36.8091 16.932 37.0554 17.2455 37.3089 17.5629C37.441 17.7314 37.5732 17.9038 37.7088 18.0762C37.7481 18.1232 37.7838 18.1702 37.8267 18.2212C37.9766 18.4132 38.1301 18.6091 38.2872 18.805C38.3444 18.8834 38.4086 18.9618 38.4693 19.0401C38.8085 19.4712 39.1477 19.9061 39.494 20.345C39.5547 20.4234 39.6154 20.5017 39.6761 20.5801C39.7975 20.7329 39.9153 20.8818 40.0367 21.0346C40.6901 21.8693 41.3507 22.7078 42.0148 23.5542C42.3432 23.9696 42.6681 24.3849 42.993 24.8003C43.0573 24.8826 43.1216 24.9649 43.1894 25.0472C43.1966 25.0589 43.2073 25.0746 43.218 25.0863C43.3287 25.2235 43.4358 25.3646 43.5465 25.5017C43.6464 25.631 43.75 25.7603 43.85 25.8896C43.9963 26.0738 44.1392 26.258 44.2855 26.4421C44.4069 26.5989 44.5283 26.7556 44.6533 26.9124C44.8033 27.1044 44.9568 27.2964 45.1067 27.4923C45.1317 27.5236 45.1567 27.555 45.1782 27.5863C45.2603 27.6882 45.3388 27.7901 45.4209 27.892C45.5495 28.0526 45.6744 28.2172 45.8065 28.3818C46.1779 28.8559 46.5528 29.334 46.9277 29.812C47.1097 30.0471 47.2918 30.2783 47.4775 30.5095L47.4846 30.5174C47.4846 30.5174 47.4882 30.5252 47.4918 30.5291C47.5668 30.6271 47.6417 30.725 47.7203 30.8191C47.7774 30.8935 47.831 30.9641 47.8881 31.0346C47.9274 31.0816 47.9631 31.1286 47.9988 31.1757C48.0988 31.305 48.1987 31.4343 48.3023 31.5597C48.3273 31.5949 48.3523 31.6263 48.3808 31.6576C48.7164 32.0887 49.0521 32.5197 49.3912 32.9468C49.5234 33.1232 49.6626 33.2956 49.8018 33.468C49.834 33.515 49.8697 33.562 49.9054 33.6051C50.0553 33.805 50.2124 34.0009 50.366 34.1968C50.4338 34.2869 50.5016 34.3731 50.5695 34.4594L50.7087 34.6357C50.7551 34.6945 50.8016 34.7532 50.848 34.8159C50.8908 34.8669 50.9301 34.9178 50.9694 34.9727C50.9765 34.9727 50.9837 34.9844 50.9872 34.9923C50.9872 34.9923 50.9872 34.9949 50.9872 35.0001C51.13 35.1804 51.2729 35.3606 51.4121 35.5409C51.5621 35.7289 51.7085 35.917 51.8548 36.1051C51.9298 36.1992 52.0048 36.2932 52.0798 36.3912C52.1083 36.4264 52.1369 36.4617 52.169 36.5009C52.2119 36.5557 52.2547 36.6145 52.2976 36.6694H52.3011C52.3011 36.6694 52.3047 36.6772 52.3083 36.6811C52.3725 36.7634 52.4404 36.8496 52.5047 36.9319C52.5654 37.0103 52.6261 37.0847 52.6868 37.1631C52.8653 37.3904 53.0402 37.6137 53.2152 37.8371C53.4401 38.1231 53.6615 38.4092 53.8864 38.6913C53.9721 38.805 54.0614 38.9147 54.1471 39.0244C54.1613 39.044 54.172 39.0597 54.1863 39.0753C54.2542 39.1615 54.3184 39.2477 54.3863 39.33C54.5434 39.5338 54.7005 39.7336 54.8611 39.9335C54.9504 40.051 55.0432 40.1686 55.1325 40.2822C55.5217 40.7799 55.9073 41.2697 56.2893 41.7556C56.5071 42.0377 56.7249 42.3159 56.9427 42.5941C56.9463 42.5941 56.9463 42.5941 56.9463 42.5941C57.1391 42.841 57.3354 43.0879 57.5247 43.3308C57.5747 43.3974 57.6211 43.4562 57.6675 43.515C57.7532 43.6247 57.8389 43.7344 57.9246 43.8402C58.0281 43.9734 58.1281 44.1027 58.2316 44.2321C58.3387 44.3692 58.4458 44.5063 58.5494 44.6396C59.8954 46.3559 61.1701 47.986 62.3483 49.4907C62.4376 49.6004 62.5197 49.7101 62.6054 49.8159C62.6232 49.8394 62.6411 49.8629 62.6589 49.8864C62.8482 50.1254 63.0303 50.3566 63.2052 50.5878C63.9443 51.5243 64.6334 52.406 65.2761 53.225C65.351 53.319 65.4224 53.4131 65.4974 53.5071C65.5867 53.6247 65.6759 53.7383 65.7652 53.8519C65.8259 53.9303 65.8866 54.0087 65.9473 54.0831C65.9687 54.1105 65.9866 54.138 66.008 54.1615H66.0116C66.2472 54.4671 66.4721 54.7571 66.6935 55.0353C66.7078 55.0549 66.7221 55.0745 66.7364 55.0941C67.9289 56.6145 68.8572 57.8018 69.4535 58.5619C69.482 58.5972 69.5106 58.6325 69.5356 58.6677C69.7248 58.9107 69.8783 59.1066 69.989 59.2477C70.1354 59.4318 70.2104 59.5298 70.2104 59.5298L70.2247 59.5455Z" fill="#808080"/>
<path fill-rule="evenodd" clip-rule="evenodd" d="M69.7417 60.1765L68.6063 61.2384L66.9782 62.7627L66.3855 63.3191L65.7678 63.899L64.8467 64.7611L64.179 65.3881L62.4438 67.0142L62.1046 67.3316C62.1046 67.3316 61.9368 67.12 61.619 66.7204C61.5904 66.6773 61.5547 66.6341 61.5155 66.5871C61.0549 65.9994 60.3301 65.0824 59.3911 63.8912C58.2735 62.4727 56.8489 60.6663 55.2065 58.5778C54.9887 58.3035 54.7638 58.0213 54.5389 57.7314C54.0354 57.0927 53.5141 56.4304 52.975 55.7447C52.8215 55.5488 52.668 55.3528 52.5109 55.153C52.4823 55.1217 52.4573 55.0864 52.4323 55.0511C51.9324 54.4202 51.4219 53.7737 50.9006 53.1115C50.2222 52.2455 49.5224 51.356 48.8048 50.443C48.6512 50.251 48.4977 50.0511 48.3406 49.8552C48.2656 49.7612 48.1906 49.6632 48.1157 49.5692C48.005 49.4281 47.8943 49.2831 47.78 49.1421C47.6372 48.9618 47.4944 48.7776 47.3516 48.5935C46.5018 47.512 45.6342 46.4069 44.7488 45.2863C43.9668 44.287 43.1706 43.2722 42.3709 42.2534C42.3102 42.175 42.2459 42.0966 42.1852 42.0143C42.1602 41.983 42.1352 41.9516 42.1102 41.9203C41.9817 41.7557 41.8531 41.5911 41.721 41.4266C41.5497 41.2071 41.3783 40.9877 41.2069 40.7643C41.1998 40.7643 41.1962 40.7565 41.1926 40.7487C41.0498 40.5684 40.907 40.3842 40.7642 40.2001C40.6499 40.059 40.5357 39.914 40.4214 39.769C40.2215 39.5143 40.0215 39.2557 39.8216 39.001C39.7573 38.9226 39.7002 38.8443 39.6359 38.7698C39.2503 38.2722 38.8611 37.7785 38.472 37.2808C38.0542 36.7479 37.6329 36.2111 37.2152 35.6781C34.8908 32.704 32.5879 29.7612 30.4099 26.9634C30.0886 26.5559 29.7744 26.1523 29.4638 25.7487C29.2388 25.4666 29.021 25.1844 28.8033 24.9062C28.6604 24.7221 28.5212 24.5418 28.3784 24.3616C28.0856 23.9815 27.7928 23.6053 27.5036 23.233C27.4501 23.1625 27.3965 23.0959 27.3465 23.0293C26.6003 22.0693 25.8755 21.1406 25.1793 20.2432C24.9758 19.9768 24.7758 19.7182 24.5759 19.4595C24.4438 19.2871 24.3117 19.1186 24.1796 18.9501C23.9725 18.6837 23.769 18.4172 23.5654 18.1586C23.5369 18.1155 23.5047 18.0763 23.4726 18.0371C23.3441 17.8686 23.2155 17.7041 23.087 17.5395C22.2444 16.4462 21.4589 15.4235 20.7377 14.4831C17.8385 10.7017 16.0176 8.26052 15.9854 8.04892C15.8141 6.97918 21.5767 0.615564 21.5767 0.615564C21.5767 0.615564 21.6803 0.552868 21.8374 0.474498C21.8409 0.47058 21.8445 0.47058 21.8481 0.466661C21.9231 0.431395 22.0123 0.388291 22.1051 0.353025C22.1373 0.337351 22.1694 0.321677 22.2051 0.309921C22.4301 0.223715 22.6764 0.157101 22.8728 0.180612C22.9335 0.188449 23.644 1.04268 24.8472 2.54738C24.9793 2.71195 25.1186 2.88437 25.2614 3.06462C25.2614 3.06462 25.2614 3.06461 25.2614 3.06853C25.8577 3.81304 26.5503 4.68295 27.3251 5.66649C27.5286 5.92119 27.7357 6.18765 27.9535 6.45802C27.9892 6.50896 28.032 6.5599 28.0749 6.61084C28.1534 6.71664 28.2391 6.82244 28.3248 6.93216C28.9211 7.68842 29.5566 8.49563 30.2278 9.34986C30.3707 9.53403 30.5206 9.72212 30.6706 9.91412C30.6742 9.92196 30.6813 9.9298 30.6884 9.93763C30.7349 9.99641 30.7813 10.0552 30.8277 10.114C30.8741 10.1767 30.9205 10.2354 30.9669 10.2942C31.2811 10.6939 31.5989 11.1014 31.9274 11.5168C31.9738 11.5756 32.0202 11.6383 32.0702 11.697C32.238 11.9165 32.4094 12.132 32.5808 12.3553C32.6629 12.4611 32.745 12.5669 32.8307 12.6727C32.8557 12.7041 32.8807 12.7393 32.9092 12.7707C33.0485 12.9509 33.1913 13.1312 33.3341 13.3154C33.5019 13.5309 33.6733 13.7503 33.8447 13.9698C33.8447 13.9698 33.8447 13.9776 33.8518 13.9815C33.884 14.0168 33.9125 14.056 33.9447 14.0991L33.9625 14.1226C34.0196 14.197 34.0803 14.2715 34.1375 14.3459C34.3196 14.5771 34.5016 14.8083 34.6837 15.0434C34.823 15.2197 34.9658 15.4039 35.1086 15.5842C35.1515 15.6429 35.2015 15.7056 35.2479 15.7644C35.4014 15.9603 35.5549 16.1563 35.712 16.3561C35.7334 16.3875 35.7584 16.4227 35.787 16.4541C35.7906 16.4541 35.7941 16.4658 35.7977 16.4697C35.9548 16.6696 36.1119 16.8694 36.269 17.0732C36.4618 17.324 36.6582 17.5748 36.8581 17.8255C36.9902 17.994 37.1223 18.1664 37.2544 18.3349C37.3473 18.4564 37.4437 18.5779 37.5401 18.6994C37.6329 18.8248 37.7293 18.9462 37.8257 19.0716C37.9542 19.2323 38.0792 19.3929 38.2042 19.5575C38.4898 19.918 38.7754 20.2863 39.0611 20.6547C39.1718 20.7957 39.2789 20.9329 39.3896 21.074C39.4074 21.1014 39.4288 21.1249 39.4467 21.1484C39.5359 21.262 39.6252 21.3757 39.7109 21.4893C40.2286 22.1594 40.7535 22.8334 41.2854 23.5113C41.4068 23.6719 41.5282 23.8247 41.6532 23.9815C41.871 24.2636 42.0888 24.5457 42.3102 24.8318C42.5208 25.0982 42.7279 25.3686 42.9386 25.639C43.0028 25.7213 43.0707 25.8075 43.1349 25.8898C43.1813 25.9525 43.2278 26.0073 43.2706 26.0661C43.3206 26.1249 43.367 26.1876 43.4134 26.2464C43.6991 26.6147 43.9847 26.983 44.2739 27.3514C44.2739 27.3514 44.281 27.3631 44.2846 27.367C44.3382 27.4376 44.3953 27.512 44.456 27.5865C44.481 27.6178 44.506 27.6531 44.5345 27.6884L44.7809 28.0058C44.7809 28.0058 44.788 28.0175 44.7916 28.0214C45.0023 28.2918 45.2093 28.5583 45.42 28.8247C45.4843 28.9109 45.5521 28.9971 45.6199 29.0833C45.9234 29.4752 46.2305 29.871 46.534 30.2628C46.559 30.2902 46.5768 30.3177 46.5982 30.3451C46.6768 30.4431 46.7518 30.5371 46.8267 30.6351L46.8303 30.6429C46.8624 30.6821 46.891 30.7213 46.9196 30.7565C46.941 30.7879 46.966 30.8153 46.9874 30.8427C47.0088 30.8741 47.0338 30.9015 47.0517 30.9289C47.2838 31.2228 47.5123 31.5206 47.7408 31.8145C47.7979 31.889 47.855 31.9634 47.9157 32.0379C48.1264 32.3122 48.3406 32.5825 48.5548 32.8568C48.7619 33.1272 48.969 33.3937 49.1761 33.664C49.2261 33.7267 49.2725 33.7855 49.3225 33.8482C49.4367 33.9932 49.5474 34.1421 49.6617 34.2871C49.7116 34.3498 49.7616 34.4125 49.808 34.4752C49.8723 34.5575 49.9366 34.6397 50.0009 34.722C50.1794 34.9532 50.3615 35.1844 50.54 35.4156C50.5864 35.4744 50.6328 35.5332 50.6792 35.5919C50.6935 35.6155 50.7078 35.6311 50.7221 35.6468C50.7221 35.6546 50.7292 35.6586 50.7328 35.6625C50.847 35.8153 50.9649 35.9642 51.0827 36.1131C51.1077 36.1444 51.1291 36.1758 51.1541 36.2071C51.1755 36.2346 51.1969 36.262 51.2184 36.2894C51.2291 36.3051 51.2398 36.3208 51.2541 36.3325C51.4147 36.5441 51.579 36.7557 51.7396 36.9634C51.7896 37.0261 51.836 37.0888 51.8825 37.1515C51.8896 37.1515 51.8896 37.1554 51.8896 37.1593C52.2609 37.6335 52.6323 38.1076 52.9964 38.5817C53.0714 38.6758 53.1464 38.7737 53.2178 38.8678C53.2249 38.8756 53.2285 38.8795 53.2321 38.8874C53.2678 38.9305 53.3035 38.9775 53.3392 39.0206C53.3999 39.099 53.457 39.1734 53.5141 39.2479C53.5498 39.2949 53.5856 39.338 53.6213 39.385C53.7462 39.5457 53.8712 39.7063 53.9962 39.867C54.1068 40.012 54.2175 40.157 54.3318 40.302C54.5246 40.5488 54.7174 40.7957 54.9066 41.0425C55.3922 41.6695 55.8706 42.2886 56.3455 42.896C56.5704 43.186 56.7954 43.4759 57.0132 43.762C57.0667 43.8247 57.1167 43.8874 57.1595 43.954C57.5309 44.4242 57.8879 44.8866 58.2414 45.345C59.4089 46.8497 60.5229 48.2839 61.5654 49.6279C61.6369 49.722 61.7118 49.816 61.7832 49.9101C61.8297 49.9688 61.8725 50.0237 61.9118 50.0786C61.9618 50.1413 62.0082 50.2 62.0546 50.2588C62.076 50.2902 62.101 50.3215 62.126 50.3529C62.5973 50.9602 63.0543 51.548 63.4899 52.1123C63.6506 52.3199 63.8041 52.5198 63.9576 52.7157C64.3397 53.2094 64.7039 53.6796 65.0538 54.1303C65.0859 54.1734 65.118 54.2165 65.1502 54.2557H65.1537C65.3537 54.5182 65.5465 54.769 65.7357 55.0119C65.7464 55.0237 65.7536 55.0354 65.7643 55.0472C66.1463 55.5409 66.5033 56.0033 66.839 56.4343C67.4924 57.2807 68.0493 57.9978 68.4921 58.5738C68.7063 58.8481 68.892 59.0872 69.0491 59.2948C69.3454 59.671 69.5453 59.9335 69.6525 60.0668C69.7024 60.1373 69.731 60.1726 69.731 60.1726L69.7417 60.1765Z" fill="#C1C1C1"/>
<path d="M104.106 77.3511C103.977 77.3707 103.849 77.3982 103.717 77.4295C103.681 77.5627 103.649 77.6842 103.62 77.7939C103.585 77.9428 103.56 78.0643 103.538 78.1466C103.538 78.174 103.527 78.1975 103.524 78.2171C103.524 78.225 103.517 78.2328 103.524 78.2406C103.763 78.2681 103.995 78.2994 104.217 78.3425C104.242 78.3425 104.267 78.3503 104.292 78.3543L104.574 77.3041C104.427 77.3041 104.27 77.3237 104.109 77.3511H104.106ZM103.142 81.0032C103.013 81.0032 102.871 80.9992 102.713 80.9875C102.556 80.9796 102.389 80.9522 102.21 80.9287C102.031 80.9013 101.846 80.8621 101.653 80.819C101.46 80.772 101.26 80.721 101.064 80.6583C100.864 80.5996 100.664 80.5212 100.468 80.4507C99.9785 80.2665 99.5036 80.0431 99.0788 79.8237C98.8145 79.6905 98.5682 79.5572 98.354 79.4358C98.2897 79.4005 98.229 79.3613 98.1719 79.33C98.1612 79.4201 98.1433 79.5063 98.1255 79.5964C98.1183 79.6395 98.1112 79.6865 98.1005 79.7336C98.0612 79.9491 98.0183 80.1646 97.9755 80.3801C97.9291 80.5956 97.8755 80.8151 97.8255 81.0345C97.7827 81.2148 97.7363 81.395 97.6899 81.5753C97.6756 81.6301 97.6613 81.685 97.647 81.7398C97.6256 81.8104 97.6077 81.8848 97.5863 81.9553C97.5792 81.9867 97.572 82.0141 97.5613 82.0455C97.5328 82.1513 97.5042 82.2532 97.4721 82.359C97.4685 82.3707 97.4649 82.3785 97.4649 82.3903C97.4578 82.4177 97.4471 82.4452 97.4399 82.4726C97.4221 82.5314 97.4042 82.5901 97.3864 82.6489C97.3649 82.7234 97.34 82.7978 97.315 82.8723C97.2935 82.8801 97.2685 82.8919 97.2471 82.8997C97.265 82.8997 97.2864 82.8997 97.3043 82.9036V82.9115C97.2793 82.9898 97.2543 83.0721 97.2257 83.1505C97.2257 83.1583 97.2257 83.1662 97.2186 83.174C97.1971 83.2445 97.1757 83.3111 97.1472 83.3817C97.1043 83.5188 97.0579 83.656 97.0115 83.7892C97.0115 83.797 97.0079 83.801 97.0043 83.8088C96.9579 83.942 96.9115 84.0752 96.8615 84.2085C96.8615 84.2085 96.8615 84.2202 96.8615 84.2242C96.833 84.232 96.8008 84.2359 96.7687 84.2359C96.758 84.2359 96.7437 84.2437 96.7294 84.2359C96.6973 84.2437 96.6616 84.2477 96.6259 84.2477C96.5116 84.2594 96.3831 84.2712 96.2403 84.2594H96.2188C96.1689 84.3143 96.1189 84.3691 96.0725 84.424C95.8261 84.6983 95.5904 85 95.3584 85.3213C95.3584 85.3213 95.3512 85.3292 95.3512 85.3331C95.3691 85.3527 95.3869 85.3684 95.4048 85.384C95.4155 85.384 95.4226 85.3801 95.4298 85.3762C95.8225 85.2665 96.1974 85.1411 96.5509 85.0196C96.5509 85.0196 96.558 85.0196 96.5616 85.0196C96.5616 85.0196 96.5687 85.0196 96.5723 85.0196C96.7187 84.8354 96.8579 84.6709 96.9901 84.5298C97.3685 84.5141 97.7363 84.4397 98.1219 84.3535C98.1183 84.377 98.1183 84.4044 98.1183 84.4318C98.1183 84.4593 98.1112 84.4906 98.1112 84.5259C98.1004 84.7179 98.0969 84.9373 98.129 85.1724C98.1504 85.3409 98.1897 85.5212 98.2611 85.6975C98.4218 86.1168 98.736 86.5439 99.343 86.9122C99.5679 87.0494 99.9178 87.1748 100.293 87.2845C100.486 87.2531 100.678 87.2179 100.871 87.1787C100.896 87.21 100.925 87.2453 100.953 87.2766C101.007 87.3393 101.067 87.406 101.132 87.4687C101.164 87.5 101.2 87.5274 101.232 87.5549C101.267 87.5627 101.3 87.5745 101.332 87.5823C101.485 87.6293 101.624 87.6724 101.739 87.7116C101.753 87.7116 101.767 87.7234 101.785 87.7273L101.978 87.0063L101.992 86.9475L102.006 86.8966L102.171 86.2892L102.392 85.4624L102.581 84.761L102.735 84.1928L102.799 83.9538L102.846 83.7814L103.095 82.8448L103.206 82.4295L103.242 82.3041L103.32 82.0063L103.592 80.9914C103.56 80.9953 103.52 80.9953 103.481 80.9992C103.392 81.011 103.281 81.011 103.153 81.011L103.142 81.0032ZM93.6588 86.0541L93.4946 87.2257L93.6624 86.058L93.6588 86.0541ZM93.2768 88.7539L93.2411 89.0204L93.2125 89.2281C93.2304 89.1771 93.2518 89.1262 93.2732 89.0792C93.309 88.989 93.3482 88.8989 93.3875 88.8127C93.3946 88.8009 93.3982 88.7892 93.4053 88.7774C93.3732 88.7618 93.3304 88.7422 93.284 88.7186L93.2768 88.7539ZM76.4637 77.5275C76.4637 77.5275 76.4566 77.5353 76.453 77.5392C76.4209 77.9546 76.3816 78.3699 76.3352 78.7775C76.3423 78.7775 76.3494 78.7696 76.3566 78.7657C76.6065 78.6168 76.8564 78.464 77.0957 78.3151C78.7381 77.2884 80.1841 76.1952 81.448 75.1098L81.5694 73.6443C80.2234 74.8433 78.7309 76.0228 77.0957 77.116C76.8886 77.2532 76.6779 77.3903 76.4637 77.5275ZM77.0957 78.3151C76.8564 78.464 76.6065 78.6168 76.3566 78.7657C76.3494 78.7657 76.3423 78.7735 76.3352 78.7775C76.3816 78.3699 76.4209 77.9546 76.453 77.5392C75.6925 78.0251 74.8998 78.4914 74.0787 78.9303C74.0322 79.1811 73.9822 79.4279 73.9287 79.6787C73.9323 79.4554 73.9323 79.2359 73.9287 79.0126C73.9144 79.0243 73.9001 79.0322 73.8858 79.0361C73.7288 79.1223 73.5752 79.2007 73.4146 79.279C73.3039 79.6356 73.186 79.9883 73.0611 80.3331V96.8142C73.2217 96.0109 73.4431 95.2273 73.7216 94.4827C73.7752 94.3456 73.8287 94.2085 73.8858 94.0791C74.0429 93.7069 74.2215 93.3581 74.4178 93.0329C75.0998 91.8965 75.996 91.0384 77.0957 90.3213C77.3063 90.1842 77.5241 90.0509 77.749 89.9216C77.7562 89.9334 77.899 89.8824 78.1347 89.7923C78.2061 89.7649 78.2882 89.7375 78.3739 89.7022C78.7702 89.5533 79.3129 89.3495 79.8913 89.1379C79.9984 89.0987 80.1091 89.0596 80.2198 89.0204C80.2448 89.0086 80.2698 89.0008 80.2948 88.9929L80.3019 88.8989L80.334 88.511L80.3447 88.3777L80.4054 87.6724L80.4304 87.3707V87.3198L80.509 86.4067L80.5233 86.2422L80.5661 85.7328L80.5911 85.4154L80.6911 84.2163L80.7089 84.0204L80.7232 83.8206L80.8125 82.7038L80.8303 82.5118L80.8589 82.1474L80.916 81.4969L81.1695 78.413L81.1767 78.3503L81.4444 75.1098C80.1805 76.1952 78.7345 77.2884 77.0921 78.3151H77.0957ZM59.8969 77.4138C59.0864 77.4452 58.2724 77.4373 57.4619 77.3982C57.4762 77.2963 57.4905 77.1944 57.5083 77.0886C57.5333 76.9279 57.5547 76.7751 57.5726 76.6223C56.53 76.5204 55.4982 76.3715 54.4913 76.1913C54.4627 76.1913 54.4306 76.1834 54.402 76.1756C54.3878 76.1756 54.3735 76.1756 54.3592 76.1678C53.8094 76.0698 53.2702 75.964 52.7454 75.8543C52.5883 75.4468 52.4954 75.0314 52.4347 74.6043C51.7814 74.4906 51.1387 74.3613 50.5174 74.2281L50.6567 75.388L50.7781 76.395L51.3708 81.2696L51.4993 82.3354L52.0349 86.7829L52.2776 88.7813L52.4347 90.0705L52.5204 90.7837L52.8204 93.2602L53.1524 96.007L53.4095 98.1348L53.5451 99.2515L53.97 102.759C54.1271 101.873 54.3378 101.007 54.577 100.153C54.4985 99.7061 54.4413 99.2555 54.4056 98.8009C55.2411 98.3973 56.1194 98.0799 56.9906 97.9114C57.112 97.8879 57.2334 97.8683 57.3548 97.8526C58.1831 97.7351 59.0329 97.5862 59.8969 97.3981C60.1576 97.3432 60.4182 97.2845 60.6789 97.2218V77.3786C60.4218 77.3942 60.1576 77.406 59.8969 77.4138ZM50.4532 66.7595C50.4746 66.1208 50.3425 65.4076 49.9533 64.9374C49.9533 64.8904 49.9604 64.8473 49.9676 64.8002C49.889 64.7454 49.8141 64.6748 49.7391 64.6004C49.6819 64.5377 49.6248 64.4672 49.5713 64.3927C49.5427 64.3574 49.5177 64.3222 49.4927 64.283C49.4891 64.283 49.4892 64.2791 49.4856 64.2791C49.4177 64.2399 49.3392 64.2125 49.2678 64.189C49.2071 64.1694 49.1428 64.1537 49.0786 64.1498C48.9714 64.3849 48.8572 64.6082 48.7251 64.7885C48.6215 64.9217 48.5073 65.0353 48.3823 65.1176C48.2681 65.1176 48.1502 65.102 48.0431 65.0589C48.0288 65.004 48.0146 64.9491 48.0074 64.8982C48.0039 64.8864 48.0003 64.8747 48.0003 64.8629C47.9646 64.8982 47.9289 64.9374 47.8932 64.9766C47.861 64.9609 47.8289 64.9335 47.7968 64.91C47.7682 64.9648 47.7396 65.0197 47.7146 65.0824C47.6932 65.1216 47.6754 65.1647 47.6575 65.2117C47.6432 65.2234 47.629 65.2391 47.6111 65.2509C47.579 65.2822 47.5433 65.3096 47.5076 65.3371C47.5076 65.2117 47.5076 65.0863 47.5147 64.9609C47.479 64.9374 47.4433 64.91 47.4076 64.8786C47.3398 64.957 47.2683 65.0314 47.2005 65.0941C47.1969 64.9687 47.1934 64.8394 47.1791 64.714C47.1791 64.7023 47.1862 64.6905 47.1898 64.6788C47.1898 64.6748 47.1791 64.6709 47.1755 64.6631C47.1755 64.6082 47.1648 64.5534 47.1541 64.5024V64.3183C47.1791 64.2438 47.2005 64.1654 47.2148 64.0832C47.2112 64.044 47.2077 64.0048 47.2041 63.9656C47.1862 63.9578 47.1684 63.9421 47.147 63.9225C47.1327 63.9068 47.1148 63.8912 47.1005 63.8676H46.8827C46.8506 63.6208 46.7971 63.3974 46.7078 63.2368C46.6935 63.2093 46.6792 63.1858 46.6614 63.1623C46.6471 63.2564 46.6292 63.3504 46.6042 63.4405C46.5935 63.464 46.5793 63.4875 46.5685 63.5071C46.5578 63.5267 46.5471 63.5463 46.54 63.562C46.5007 63.6325 46.465 63.6952 46.4257 63.7618C46.4043 63.7971 46.3829 63.8324 46.3615 63.8676C46.1901 63.8676 46.0187 63.8676 45.8509 63.8676C45.8438 63.8598 45.8366 63.8559 45.8295 63.8598C45.7473 63.8167 45.6509 63.8167 45.5403 63.8676C45.4653 63.899 45.3832 63.9578 45.2975 64.04C45.2618 64.0753 45.2261 64.1184 45.1904 64.1694C45.094 64.3065 45.0083 64.4985 44.9297 64.7023C44.8476 64.6748 44.7655 64.6474 44.6869 64.6278C44.6441 64.667 44.6012 64.7101 44.5584 64.7454C44.5156 64.7846 44.4691 64.8198 44.4227 64.8512C44.362 64.8982 44.2978 64.9374 44.2335 64.9766C44.2263 64.9766 44.2228 64.9766 44.2156 64.9844C44.1585 65.0197 44.0978 65.0471 44.0371 65.0745C44.0085 65.0902 43.9764 65.102 43.9479 65.1137C43.9479 65.1137 43.9514 65.1216 43.9514 65.1255H43.9371C43.9371 65.1255 43.9264 65.1372 43.9229 65.1411C43.9157 65.1372 43.9086 65.1333 43.9014 65.1333C43.8443 65.1568 43.7836 65.1764 43.7229 65.196C43.5444 65.2548 43.3516 65.3096 43.1624 65.3371C43.1552 65.3371 43.1445 65.3371 43.1374 65.3449C43.0553 65.4154 42.9838 65.5016 42.9267 65.5918C42.9267 65.6114 42.9196 65.6349 42.9196 65.6584C42.9124 65.819 42.891 65.9836 42.7803 66.1051C42.7446 66.1443 42.7089 66.1678 42.6661 66.1913C42.6125 66.2226 42.559 66.2462 42.5054 66.2814C42.4768 66.2971 42.4519 66.3167 42.4233 66.3363C42.3519 66.3872 42.2805 66.4499 42.2126 66.5126C42.1698 66.5479 42.1305 66.5831 42.0877 66.6184C41.9163 66.7595 41.7306 66.8927 41.5378 66.9946C41.47 67.0299 41.4021 67.0651 41.3343 67.0965C41.2022 67.1592 41.0701 67.214 40.9344 67.265C40.8594 67.2963 40.7845 67.3237 40.7095 67.3472C40.6202 67.3786 40.531 67.406 40.4417 67.4335H45.7116C45.7795 67.4335 45.8473 67.4335 45.9152 67.4413C46.2758 67.4609 46.6328 67.5353 46.9756 67.6568C47.1184 67.7078 47.2612 67.7626 47.4005 67.8292C47.4076 67.8331 47.4147 67.8371 47.4219 67.8371C47.5576 67.9037 47.6932 67.9781 47.8218 68.0526C47.8789 68.0878 47.9324 68.1231 47.986 68.1584C48.036 68.1897 48.0824 68.225 48.1324 68.2603C48.3038 68.3778 48.468 68.511 48.6251 68.6599C48.7215 68.7461 48.8143 68.8363 48.9036 68.9342C49.0143 69.0479 49.1178 69.1733 49.2178 69.2987C49.2749 69.3731 49.3285 69.4476 49.382 69.522C49.4213 69.5769 49.457 69.6317 49.4891 69.6866C49.607 69.8629 49.7105 70.0471 49.8033 70.2391C49.8105 69.9256 49.7676 69.6082 49.657 69.3222C49.5855 69.1262 49.4784 68.9421 49.3321 68.7893C49.3213 68.7736 49.3142 68.7618 49.3035 68.7579C49.3142 68.7187 49.3213 68.6835 49.3321 68.6482C49.3785 68.6404 49.4213 68.6286 49.4677 68.6129C49.7498 68.5189 50.0211 68.2994 50.2032 67.9703C50.2961 67.8057 50.3675 67.5667 50.4139 67.2885C50.4282 67.1944 50.4425 67.0925 50.4496 66.9907C50.5067 66.975 50.5674 66.9672 50.6245 66.9632C50.5674 66.9045 50.5139 66.8378 50.4603 66.7673L50.4532 66.7595ZM20.5544 66.9476C20.4116 66.7595 20.2867 66.5518 20.1903 66.3284C20.1903 66.3206 20.1831 66.3128 20.1796 66.3049C20.1581 66.254 20.1403 66.1991 20.126 66.1404C20.1153 66.156 20.101 66.1678 20.0903 66.1835C20.0474 66.2344 20.0046 66.2814 19.9618 66.3324C19.9439 66.352 19.9225 66.3755 19.9046 66.3951C19.9046 66.3637 19.8975 66.3402 19.8939 66.3089C19.8939 66.2775 19.8903 66.2462 19.8868 66.2109C19.8868 66.1795 19.8868 66.1404 19.8832 66.109C19.8832 66.062 19.8832 66.0189 19.8761 65.9719V65.7289C19.8761 65.6114 19.8796 65.486 19.8832 65.3645V65.3488C19.8868 65.2509 19.8939 65.149 19.8975 65.051C19.9011 65.0197 19.9011 64.9844 19.9046 64.9491V64.9413L19.2512 64.5965C19.2084 64.6317 19.162 64.667 19.1191 64.7023C19.0584 64.7493 19.0013 64.7963 18.9442 64.8473C18.8871 64.8904 18.8335 64.9374 18.7835 64.9844C18.6478 65.098 18.5193 65.2195 18.4086 65.3371C18.655 65.627 18.8942 65.9327 19.1227 66.2579C19.1263 66.2579 19.1298 66.2657 19.1298 66.2697C19.187 66.348 19.237 66.4264 19.2798 66.5087C19.2941 66.5283 19.3084 66.5518 19.3191 66.5714C19.3584 66.6419 19.3941 66.7125 19.4262 66.783C19.4333 66.7987 19.444 66.8143 19.4512 66.8339H19.4476C19.4083 66.8731 19.3691 66.9045 19.3298 66.9358C19.3298 66.9358 19.3191 66.9436 19.3155 66.9476C19.3084 66.9554 19.2941 66.9672 19.2798 66.9789C19.2512 67.0024 19.2227 67.022 19.1941 67.0377C19.2048 67.167 19.212 67.3002 19.2155 67.4295H20.9829C20.8329 67.2885 20.6901 67.1239 20.558 66.9476H20.5544ZM129.899 58.5777C129.845 58.08 129.709 57.6098 129.499 57.1827C129.07 56.305 128.342 55.6192 127.46 55.2822C127.071 55.1333 126.65 55.0511 126.21 55.0511H5.56581C5.43727 55.0511 5.30874 55.0589 5.18377 55.0706C4.50182 55.149 3.87343 55.4194 3.35215 55.8348C2.44169 56.5597 1.849 57.7156 1.849 59.0205L2.81301 61.6145L3.5271 63.5502L19.8118 107.625C19.8118 109.816 21.4756 111.595 23.525 111.595H108.722C110.772 111.595 112.439 109.816 112.439 107.625L123.961 75.5839L128.288 63.562L128.999 61.5871L129.924 59.0205C129.924 58.8716 129.916 58.7227 129.899 58.5777ZM63.9636 108.213C63.1674 108.213 62.4355 107.872 61.8642 107.3C61.8285 107.265 61.7928 107.23 61.7571 107.186C61.6786 107.104 61.6036 107.014 61.5322 106.92C61.218 106.505 60.9752 106.011 60.8324 105.462C60.8181 105.415 60.8074 105.368 60.7967 105.321C60.7788 105.239 60.761 105.157 60.7467 105.07C60.7038 104.812 60.6789 104.545 60.6789 104.271V71.4186C60.6789 70.9405 60.7503 70.482 60.8788 70.0588C60.9145 69.9413 60.9573 69.8237 61.0038 69.7101C61.2073 69.2007 61.5001 68.754 61.8535 68.3974L61.9499 68.3034C62.0106 68.2485 62.0677 68.1976 62.1284 68.1466C62.2141 68.0761 62.3034 68.0134 62.3962 67.9546C62.4462 67.9193 62.4926 67.8919 62.5426 67.8606C62.5783 67.841 62.614 67.8214 62.6533 67.8018C62.664 67.8018 62.6783 67.79 62.689 67.7822C62.7854 67.7352 62.8854 67.6882 62.9853 67.6529C63.246 67.5549 63.5173 67.4962 63.7994 67.4766C63.853 67.4766 63.9101 67.4766 63.9672 67.4766H69.7727C69.8263 67.4766 69.8798 67.4766 69.9298 67.4766C69.9834 67.4766 70.0369 67.4844 70.0869 67.4922C70.0941 67.4922 70.1012 67.4922 70.1083 67.4922C70.3297 67.5157 70.5439 67.5706 70.751 67.649C70.801 67.6646 70.8546 67.6882 70.9045 67.7117C70.9545 67.7313 71.0045 67.7548 71.0509 67.7822C71.1009 67.8018 71.1473 67.8292 71.1973 67.8606C71.2437 67.8841 71.2937 67.9154 71.3401 67.9507C71.5294 68.0722 71.7043 68.2132 71.8686 68.3739C71.9078 68.4131 71.9471 68.4562 71.9828 68.4993C72.0221 68.5385 72.0614 68.5816 72.0971 68.6286C72.1363 68.6717 72.172 68.7187 72.2077 68.7657C72.3434 68.946 72.4684 69.1419 72.5755 69.3535C72.6469 69.4907 72.7112 69.6356 72.7683 69.7885C72.8469 69.9961 72.9075 70.2117 72.9575 70.4311C72.9968 70.6113 73.0254 70.8033 73.0397 70.9954C73.0468 71.0502 73.0504 71.1051 73.0539 71.1639C73.0539 71.2461 73.0611 71.3323 73.0611 71.4146V104.267C73.0611 104.514 73.0432 104.753 73.004 104.984C72.7255 106.818 71.3866 108.209 69.7727 108.209H63.9636V108.213ZM51.1887 108.146L49.7569 108.17L46.9791 108.213C46.8649 108.213 46.7506 108.213 46.6364 108.197C46.6185 108.197 46.5971 108.197 46.5757 108.19C46.39 108.17 46.2079 108.135 46.0258 108.088C45.8152 108.033 45.6045 107.962 45.401 107.872C45.3439 107.849 45.2868 107.821 45.2332 107.794C45.1939 107.778 45.1547 107.759 45.1154 107.735C45.0654 107.712 45.019 107.684 44.969 107.657C44.844 107.586 44.7226 107.512 44.6048 107.429C44.5691 107.406 44.5298 107.378 44.4906 107.347C44.3406 107.237 44.1942 107.12 44.0585 106.991C43.8764 106.826 43.7086 106.646 43.5551 106.458C43.5123 106.411 43.473 106.364 43.4409 106.313C43.3944 106.258 43.3552 106.203 43.3195 106.148C43.2766 106.093 43.2409 106.038 43.2052 105.98C43.1659 105.921 43.1302 105.862 43.0981 105.803C43.0588 105.744 43.0267 105.686 42.9946 105.623C42.9624 105.564 42.9303 105.502 42.9017 105.439C42.8696 105.38 42.841 105.317 42.816 105.255C42.6768 104.937 42.5732 104.608 42.509 104.267L42.0912 102.089L41.9734 101.481L37.9317 80.4507V80.4428L37.7675 79.5847V79.5729L37.7068 79.2634V79.2555L37.6532 78.9616L37.6068 78.7344L37.5996 78.6952L37.4354 77.8331L36.7999 74.522L36.425 72.5863L36.1929 71.3715C36.1322 71.0659 36.1072 70.7681 36.1179 70.482C36.1215 70.29 36.1393 70.1059 36.1715 69.9256C36.1893 69.8198 36.2143 69.7179 36.2393 69.6161C36.2465 69.6004 36.25 69.5808 36.2572 69.5612C36.3214 69.3418 36.4071 69.138 36.5071 68.946C36.6071 68.7579 36.7285 68.5855 36.857 68.4327C36.8641 68.4288 36.8677 68.4248 36.8713 68.417C37.0427 68.2211 37.2355 68.0565 37.4461 67.9115C37.4711 67.8998 37.4961 67.8841 37.5175 67.8684C37.5175 67.8684 37.5247 67.8606 37.5282 67.8606C37.7353 67.7352 37.9567 67.6372 38.1959 67.5628C38.2959 67.5314 38.3958 67.5079 38.4958 67.4883C38.7029 67.4452 38.9171 67.4256 39.1421 67.4256H45.7116C45.7795 67.4256 45.8473 67.4256 45.9152 67.4335C46.2758 67.453 46.6328 67.5275 46.9756 67.649C47.1184 67.6999 47.2612 67.7548 47.4005 67.8214C47.4076 67.8253 47.4147 67.8292 47.4219 67.8292C47.5576 67.8958 47.6932 67.9703 47.8218 68.0447C47.8789 68.08 47.9324 68.1153 47.986 68.1505C48.036 68.1819 48.0824 68.2172 48.1324 68.2524C48.3038 68.37 48.468 68.5032 48.6251 68.6521C48.7215 68.7383 48.8143 68.8284 48.9036 68.9264C49.0143 69.04 49.1178 69.1654 49.2178 69.2908C49.2749 69.3653 49.3285 69.4397 49.382 69.5142C49.4213 69.569 49.457 69.6239 49.4891 69.6787C49.607 69.8551 49.7105 70.0392 49.8033 70.2313C49.864 70.3645 49.9212 70.4977 49.9712 70.6349C49.9962 70.6976 50.0176 70.7603 50.0354 70.8229C50.0533 70.87 50.0676 70.9209 50.0818 70.9679C50.1175 71.1012 50.1497 71.2344 50.1782 71.3715L50.2318 71.8182L50.2496 71.9711L50.5246 74.2281L50.6638 75.388L50.7852 76.395L51.3779 81.2696L51.5064 82.3354L52.042 86.7829L52.2848 88.7813L52.4419 90.0705L52.5276 90.7837L52.8275 93.2602L53.1595 96.007L53.4166 98.1348L53.5523 99.2515L53.9772 102.759L54.0379 103.276L54.12 103.95L54.1521 104.204C54.1628 104.252 54.17 104.299 54.1771 104.346C54.1985 104.467 54.2128 104.585 54.22 104.702C54.3056 105.917 53.8451 106.959 53.0203 107.57C52.9989 107.586 52.9739 107.602 52.9525 107.617C52.8775 107.668 52.8025 107.719 52.7239 107.762C52.4062 107.943 52.0456 108.064 51.6528 108.115C51.5064 108.135 51.3529 108.146 51.1958 108.146H51.1887ZM35.0468 108.319C34.9254 108.358 34.8004 108.386 34.6648 108.405C34.5505 108.425 34.4327 108.436 34.3113 108.436C34.2649 108.444 34.2149 108.444 34.1649 108.444L33.94 108.433L32.3511 108.354L29.4127 108.213C29.3341 108.213 29.2591 108.213 29.1806 108.205C29.1592 108.205 29.1413 108.201 29.1199 108.201C29.0663 108.201 29.0128 108.194 28.9556 108.182C28.77 108.162 28.5808 108.127 28.3915 108.076C28.3808 108.076 28.3665 108.076 28.3522 108.064H28.3487C28.2523 108.041 28.1594 108.009 28.063 107.978C28.0559 107.978 28.0523 107.978 28.0488 107.978C27.9881 107.954 27.9238 107.931 27.8595 107.907C27.8203 107.892 27.7774 107.876 27.7381 107.86C27.6489 107.821 27.556 107.782 27.4668 107.739C27.4418 107.727 27.4132 107.715 27.3882 107.7L27.3811 107.696C27.2883 107.649 27.1954 107.602 27.1026 107.547C27.1026 107.547 27.0955 107.547 27.0919 107.547C26.9919 107.488 26.8919 107.429 26.7955 107.367C26.7099 107.312 26.6242 107.253 26.542 107.194C26.5171 107.179 26.4921 107.159 26.4671 107.139C26.4671 107.139 26.4647 107.137 26.4599 107.132C26.3707 107.073 26.285 107.006 26.1993 106.936C26.1957 106.936 26.1921 106.936 26.1886 106.928C26.0957 106.849 26.0065 106.771 25.9172 106.693C25.8422 106.626 25.7673 106.556 25.6959 106.481C25.6744 106.462 25.6566 106.442 25.6387 106.422C25.553 106.336 25.4709 106.25 25.3924 106.16C25.3638 106.128 25.3352 106.093 25.3067 106.058C25.2567 105.999 25.2067 105.94 25.1567 105.878C25.1424 105.858 25.1246 105.835 25.1103 105.815C25.0496 105.737 24.9925 105.658 24.9354 105.576C24.7925 105.372 24.664 105.165 24.5497 104.945C24.4926 104.839 24.4391 104.726 24.3891 104.616C24.3784 104.596 24.3712 104.581 24.3641 104.561C24.3605 104.561 24.3605 104.553 24.3605 104.549C24.3212 104.459 24.282 104.369 24.2498 104.279L23.3215 101.771L23.0859 101.125H23.0823L22.8181 100.4L21.9826 98.1426L19.519 91.4773L18.9656 89.9765L15.7451 81.2618L14.6454 78.2759L14.0349 76.6262L13.4779 75.1137L12.8602 73.4405L12.2461 71.7791L12.0997 71.3872C11.7855 70.533 11.7462 69.7454 11.9426 69.1027C11.9819 68.9656 12.0354 68.8363 12.0925 68.7148C12.1961 68.5032 12.3318 68.3112 12.4996 68.1466C12.7388 67.8958 13.0494 67.7038 13.41 67.5902C13.5528 67.5393 13.7028 67.504 13.8635 67.4805C13.9884 67.457 14.1205 67.4452 14.2598 67.4452C14.2919 67.4413 14.3241 67.4413 14.3562 67.4413H20.9865C21.3114 67.4491 21.6399 67.5001 21.9719 67.5902C22.3325 67.6842 22.6896 67.8253 23.0359 68.0056C23.0466 68.0056 23.0537 68.0134 23.0609 68.0173C23.1359 68.0565 23.2108 68.0957 23.2822 68.1388C23.3144 68.1584 23.3465 68.178 23.3787 68.1976C23.8785 68.4954 24.3462 68.8755 24.7604 69.3065C24.9425 69.4985 25.1139 69.6983 25.271 69.9099C25.553 70.2822 25.7923 70.6858 25.9743 71.1051C26.0136 71.1991 26.0493 71.2932 26.085 71.3872L26.5028 72.7195L26.8562 73.8519L27.6739 76.4734L31.105 87.4687L31.2586 87.9585L31.2764 88.0133L31.305 88.1035L31.405 88.4208L31.8941 89.9961L32.2976 91.2892H32.3011L32.7724 92.8056L34.3506 97.8605L36.1251 103.538L36.4285 104.514C36.6285 105.059 36.7177 105.576 36.6999 106.046C36.6999 106.14 36.6928 106.234 36.6785 106.324C36.5892 107.092 36.2143 107.715 35.6073 108.084C35.4395 108.186 35.2574 108.272 35.0539 108.331L35.0468 108.319ZM113.939 90.3409L113.814 90.7288L112.511 94.6983L109.376 104.271C108.662 106.446 106.423 108.209 104.37 108.213H104.367L103.935 108.244L102.735 108.323L102.01 108.374H101.985L101.207 108.429L100.85 108.452H100.818L100.553 108.476L99.6821 108.534C98.8717 108.534 98.2219 108.217 97.772 107.696C97.6934 107.602 97.6184 107.5 97.5542 107.39C97.4399 107.214 97.3471 107.022 97.2793 106.814C97.2257 106.665 97.1829 106.509 97.1579 106.344C97.0579 105.815 97.0793 105.219 97.2364 104.612C97.2614 104.514 97.29 104.412 97.3221 104.314L98.3111 100.631L98.8967 98.4522L100.393 92.8801L101.217 89.8002L101.589 88.4208L101.599 88.3895L101.778 87.7194L101.971 86.9984L101.985 86.9397L101.999 86.8887L102.164 86.2814L102.385 85.4546L102.574 84.7531L102.728 84.185L102.792 83.9459L102.838 83.7735L103.088 82.837L103.199 82.4216L103.235 82.2963L103.313 81.9985L103.585 80.9836L103.938 79.6591L103.96 79.5729L104.024 79.3378L104.267 78.4366L104.284 78.3739V78.3543L104.57 77.3041L104.584 77.2571L104.788 76.4969L105.659 73.2446L105.727 73.0016L105.805 72.7038L106.152 71.4146C106.177 71.3323 106.205 71.254 106.237 71.1717C106.255 71.1247 106.277 71.0737 106.295 71.0267C106.809 69.8002 107.801 68.7383 108.937 68.0996C109.108 68.0056 109.283 67.9193 109.458 67.8449C110.015 67.6059 110.593 67.4726 111.154 67.4726H117.716C118.527 67.4726 119.184 67.7469 119.644 68.2172C119.702 68.2759 119.755 68.3347 119.805 68.4013C119.826 68.4248 119.844 68.4523 119.862 68.4797C119.962 68.6129 120.041 68.754 120.109 68.9029C120.159 69.0087 120.198 69.1184 120.23 69.232C120.266 69.3378 120.291 69.4436 120.308 69.5573C120.351 69.8002 120.366 70.0588 120.348 70.3292C120.344 70.3997 120.337 70.4742 120.33 70.5486C120.312 70.6936 120.287 70.8465 120.251 70.9993C120.237 71.0659 120.219 71.1325 120.201 71.203C120.187 71.2736 120.166 71.3441 120.141 71.4186L118.563 76.2304L118.138 77.5314L117.609 79.1458H117.606L117.566 79.2673L117.063 80.8072L115.249 86.3401L114.967 87.2022L113.939 90.337V90.3409ZM79.6592 106.732C79.1951 106.101 78.9523 105.278 79.013 104.365C79.0201 104.259 79.0308 104.154 79.0451 104.048L79.2522 101.556L79.3057 100.917L79.3736 100.106L79.52 98.3268L79.7949 95.0039L79.802 94.953L79.8913 93.8597L80.0305 92.1669L80.0627 91.7947L80.077 91.6105L80.2662 89.3339L80.2769 89.2006L80.2948 88.9929L80.3019 88.8989L80.334 88.511L80.3447 88.3777L80.4054 87.6724L80.4304 87.3707V87.3198L80.509 86.4067L80.5233 86.2422L80.5661 85.7328L80.5911 85.4154L80.6911 84.2163L80.7089 84.0204L80.7232 83.8206L80.8125 82.7038L80.8303 82.5118L80.8589 82.1474L80.916 81.4969L81.1695 78.413L81.1767 78.3503L81.4444 75.1098L81.5658 73.6443L81.6801 72.261L81.7515 71.4146C82.055 69.2399 83.9687 67.4726 86.0217 67.4726H92.577C92.6341 67.4726 92.6913 67.4726 92.7484 67.4726C92.7698 67.4726 92.7912 67.4726 92.8127 67.4726C93.1161 67.4922 93.4018 67.551 93.6696 67.649C93.9659 67.7509 94.2373 67.8958 94.48 68.08C94.6193 68.1819 94.7514 68.2994 94.8728 68.4288C94.9085 68.464 94.9442 68.5032 94.9763 68.5424C95.0406 68.6168 95.1013 68.6952 95.1584 68.7775C95.2227 68.8676 95.2798 68.9617 95.337 69.0596C95.3869 69.1498 95.4333 69.2438 95.4726 69.3378C95.519 69.4358 95.5583 69.5377 95.5904 69.6396C95.5904 69.6513 95.5905 69.6592 95.5976 69.667C95.7297 70.0745 95.7904 70.5212 95.769 70.9914C95.769 71.0463 95.769 71.1012 95.7618 71.156C95.7547 71.2265 95.7475 71.301 95.7368 71.3754C95.7368 71.3872 95.7333 71.399 95.7333 71.4107L95.544 72.7352L94.9835 76.6889L94.8764 77.453L94.7121 78.5972L94.6943 78.7344L94.505 80.0588L94.4943 80.1333L94.4836 80.2312L94.4479 80.5016L94.3836 80.9522L94.3551 81.1442L94.0445 83.3464L94.0016 83.6325L93.9873 83.7422L93.7945 85.0941L93.741 85.4741L93.6981 85.772L93.6624 86.0463L93.4982 87.2179L93.4732 87.3981L93.4339 87.6763L93.2875 88.7108L93.2804 88.7461L93.2447 89.0125L93.2161 89.2202H93.2125L93.0305 90.5133L93.0233 90.5564L93.0019 90.7092L92.9019 91.4185L92.8448 91.8299V91.8378L92.7841 92.2453L92.752 92.4843L92.6841 92.9624V92.9859L92.5949 93.6128L92.577 93.7461L92.3735 95.1802L92.1628 96.6732H92.1593L92.0843 97.21L92.0022 97.7939V97.8056L91.9093 98.4443L91.7915 99.2711L91.7487 99.5689L91.6737 100.102L91.6666 100.149L91.6201 100.482L91.4702 101.532V101.552L91.463 101.595L91.2845 102.864L91.2238 103.288L91.1738 103.648L91.1524 103.773V103.785L91.0846 104.263C90.9989 104.871 90.7882 105.447 90.4847 105.96C90.3169 106.238 90.1241 106.505 89.9063 106.744C89.0994 107.633 87.9783 108.205 86.8108 108.205L83.2582 108.033H83.2511L83.0476 108.021L82.2085 107.982C81.9978 107.982 81.7943 107.962 81.598 107.927C80.7946 107.782 80.1234 107.347 79.6664 106.724L79.6592 106.732Z" fill="#008488"/>
<path fill-rule="evenodd" clip-rule="evenodd" d="M96.6634 71.4146L92.004 104.267C91.6933 106.442 89.7832 108.209 87.7302 108.209H86.8019C88.8549 108.209 90.7686 106.442 91.0757 104.267L95.7351 71.4146C96.0457 69.2399 94.6354 67.4727 92.5824 67.4727H93.5107C95.5637 67.4727 96.974 69.2399 96.6634 71.4146Z" fill="#F3FFFC"/>
<path fill-rule="evenodd" clip-rule="evenodd" d="M121.068 71.4147L110.306 104.267C109.592 106.442 107.35 108.209 105.297 108.209H104.369C106.422 108.209 108.664 106.442 109.378 104.267L120.139 71.4147C120.85 69.236 119.768 67.4688 117.715 67.4688H118.643C120.696 67.4688 121.778 69.236 121.068 71.4147Z" fill="#F3FFFC"/>
<path d="M130.79 60.1334C130.79 60.1334 130.322 63.1389 129.419 63.4602C129.319 63.4955 128.934 63.5268 128.287 63.5621C127.77 63.5817 127.088 63.6052 126.252 63.6287C125.635 63.6444 124.931 63.6601 124.149 63.6757H124.11C123.853 63.6797 123.589 63.6836 123.314 63.6914C122.825 63.6953 122.31 63.7032 121.771 63.711C117.505 63.7737 111.688 63.8168 104.901 63.8521C102.53 63.8638 100.038 63.8717 97.4532 63.8795C96.8034 63.8795 96.1464 63.8795 95.4823 63.8873H94.429C94.2648 63.8873 94.1005 63.8873 93.9363 63.8913C93.4436 63.8913 92.9473 63.8913 92.4474 63.8913H91.1442C90.7479 63.8913 90.348 63.8913 89.9482 63.8913H88.7271C88.2201 63.8913 87.7059 63.8913 87.1918 63.8913H84.1534C84.1284 63.8952 84.1034 63.8952 84.0784 63.8913C83.7142 63.8952 83.35 63.8952 82.9858 63.8913C82.336 63.8952 81.6826 63.8952 81.0292 63.8952H79.7082C78.23 63.8952 76.7412 63.8952 75.2452 63.8952H73.3885C73.1743 63.8952 72.9637 63.8952 72.7494 63.8913C72.7173 63.8952 72.6852 63.8952 72.653 63.8913C72.5709 63.8952 72.4852 63.8952 72.4031 63.8913C72.3138 63.8952 72.2281 63.8952 72.1389 63.8913C72.096 63.8952 72.0568 63.8952 72.0139 63.8913C71.8782 63.8952 71.7426 63.8952 71.6069 63.8913C70.9321 63.8952 70.2537 63.8913 69.5753 63.8913H68.1721C67.6152 63.8913 67.0546 63.8913 66.494 63.8913C66.2548 63.8913 66.0156 63.8913 65.7764 63.8913C65.7157 63.8913 65.6514 63.8913 65.5872 63.8913H64.1911C63.3307 63.8913 62.4702 63.8913 61.6097 63.8913H60.41C60.0744 63.8913 59.7352 63.8913 59.3996 63.8913C58.0821 63.8913 56.7718 63.8873 55.465 63.8834C54.3796 63.8834 53.2942 63.8834 52.2195 63.8756H52.2159C52.1909 63.8756 52.1659 63.8756 52.141 63.8756C52.0767 63.8756 52.0124 63.8756 51.9481 63.8756H51.0484C51.002 63.8756 50.9556 63.8756 50.9127 63.8717C50.8877 63.8756 50.8627 63.8756 50.8413 63.8717C50.7771 63.8756 50.7164 63.8756 50.6557 63.8717C50.5735 63.8756 50.495 63.8756 50.4164 63.8717H49.6167C49.5024 63.8717 49.3882 63.8717 49.2775 63.8717C49.2525 63.8717 49.2275 63.8717 49.2061 63.8717C49.1596 63.8717 49.1132 63.8717 49.0704 63.8717C49.0383 63.8717 49.0097 63.8717 48.9811 63.8717H48.6812C48.3385 63.8717 47.9993 63.8717 47.6601 63.8717C47.6137 63.8717 47.5708 63.8717 47.528 63.8717C47.5173 63.8717 47.5101 63.8717 47.4994 63.8717H46.3604C46.1891 63.8717 46.0177 63.8717 45.8499 63.8717H45.0037C44.8359 63.8678 44.6716 63.8678 44.5074 63.8678H43.8183C43.6826 63.8678 43.5505 63.8678 43.4148 63.8678H42.6543C42.458 63.8678 42.2616 63.8678 42.0688 63.8678C41.6046 63.8678 41.1441 63.8678 40.687 63.8678H40.2122C40.1122 63.8638 40.0122 63.8638 39.9123 63.8638H39.6516C39.391 63.8638 39.1303 63.8638 38.8733 63.8638C38.6269 63.8638 38.3841 63.8638 38.1449 63.8638C36.9667 63.856 35.8027 63.8521 34.6602 63.8482C32.6215 63.8403 30.6363 63.8286 28.7225 63.8207C27.2123 63.8129 25.7412 63.8051 24.3202 63.7933C23.7275 63.7933 23.1455 63.7855 22.5707 63.7815H22.053C22.053 63.7815 22.0387 63.7815 22.0316 63.7815H22.0244C21.4603 63.7815 20.9033 63.7737 20.357 63.7698C20.2499 63.7698 20.1428 63.7698 20.0393 63.7698H19.8643C19.6394 63.7698 19.4145 63.7698 19.1931 63.7698C19.1502 63.7698 19.1074 63.7698 19.0681 63.7698H18.8825C18.7361 63.7698 18.5897 63.7659 18.4469 63.7659C18.354 63.7659 18.2612 63.7659 18.1684 63.7659C17.6471 63.7659 17.133 63.7659 16.6295 63.7541H16.2118C16.1511 63.7541 16.0904 63.7502 16.0297 63.7502H15.9119C15.9119 63.7502 15.9119 63.7541 15.9119 63.7502H15.894C15.3513 63.7502 14.8193 63.7424 14.3052 63.7345C14.2909 63.7384 14.2766 63.7345 14.2623 63.7345C13.3912 63.7345 12.5592 63.7228 11.7666 63.711H11.6452C11.4131 63.711 11.1882 63.711 10.9633 63.7032H10.9561C9.17091 63.6875 7.6035 63.6679 6.28601 63.6444C5.18632 63.6287 4.26515 63.6131 3.53679 63.5935C2.34784 63.566 1.68017 63.5347 1.61233 63.5033C0.651885 63.0566 0.634033 60.1765 0.634033 60.1765C0.634033 58.0449 1.61233 56.2189 2.99765 55.4626C3.43324 55.2275 3.91168 55.0943 4.41154 55.0943H127.013C127.195 55.0943 127.373 55.1099 127.548 55.1452C128.448 55.3176 129.248 55.9172 129.823 56.7871C130.422 57.6883 130.787 58.8795 130.787 60.1765L130.79 60.1334Z" fill="#9CCFD1"/>
<path fill-rule="evenodd" clip-rule="evenodd" d="M29.4132 108.213H28.4849C26.4319 108.213 24.1183 106.446 23.3113 104.267L11.1612 71.3757C10.3578 69.197 11.3683 67.4297 13.4177 67.4297H14.346C12.2966 67.4297 11.2862 69.197 12.0895 71.3757L24.2396 104.267C25.043 106.446 27.3602 108.213 29.4132 108.213Z" fill="#F3FFFC"/>
<path fill-rule="evenodd" clip-rule="evenodd" d="M46.9774 108.213H46.049C43.9961 108.213 41.9931 106.446 41.5753 104.267L35.2521 71.3717C34.8308 69.193 36.1554 67.4219 38.2048 67.4219H39.1331C37.0837 67.4219 35.7591 69.1891 36.1804 71.3717L42.5036 104.267C42.9214 106.446 44.9244 108.213 46.9774 108.213Z" fill="#F3FFFC"/>
<path fill-rule="evenodd" clip-rule="evenodd" d="M60.678 71.4146V104.267C60.678 106.442 62.1526 108.209 63.9664 108.209H63.6129C61.5599 108.209 59.8997 106.442 59.8997 104.267V71.4146C59.8997 69.2399 61.5635 67.4727 63.6129 67.4727H63.9664C62.1526 67.4727 60.678 69.2399 60.678 71.4146Z" fill="#F3FFFC"/>
<path fill-rule="evenodd" clip-rule="evenodd" d="M73.8846 71.4146V104.267C73.8846 106.442 72.2208 108.209 70.1714 108.209H69.7715C71.5888 108.209 73.0598 106.442 73.0598 104.267V71.4146C73.0598 69.2399 71.5888 67.4727 69.7715 67.4727H70.1714C72.2208 67.4727 73.8846 69.2399 73.8846 71.4146Z" fill="#F3FFFC"/>
</svg>
