<svg width="112" height="91" viewBox="0 0 112 91" fill="none" xmlns="http://www.w3.org/2000/svg">
<path d="M92.0064 35.5873H56.1465V56.0799H92.0064V35.5873Z" fill="#C1C1C1"/>
<path d="M66.2741 18.2245H24.146V56.08H66.2741V18.2245Z" fill="#008488"/>
<path d="M1.66663 8.26389H10.9503C12.3586 8.2628 13.7205 8.76707 14.7885 9.68503C15.8565 10.603 16.5596 11.8737 16.7701 13.2662L23.3021 56.08H91.1976C92.8598 56.0792 94.4734 55.5196 95.7793 54.4912C97.0851 53.4628 98.0073 52.0252 98.3977 50.4096L108.543 8.59796" stroke="#818391" stroke-width="2.03" stroke-linecap="round" stroke-linejoin="round"/>
<path d="M66.2742 0H43.5486V18.2157H66.2742V0Z" fill="#E6E6E6"/>
<path opacity="0.43" d="M92.0065 9.96942H65.4566V35.5874H92.0065V9.96942Z" fill="#E6E6E6"/>
<path d="M22.0713 48.0446L25.5878 69.8472C25.9427 72.0376 27.0654 74.0302 28.755 75.4686C30.4447 76.907 32.591 77.6972 34.8099 77.6978H95.1713" stroke="#818391" stroke-width="2.03" stroke-linecap="round" stroke-linejoin="round"/>
<path d="M37.9134 90.5508C40.6809 90.5508 42.9245 88.3073 42.9245 85.5397C42.9245 82.7722 40.6809 80.5287 37.9134 80.5287C35.1459 80.5287 32.9023 82.7722 32.9023 85.5397C32.9023 88.3073 35.1459 90.5508 37.9134 90.5508Z" fill="#699698"/>
<path d="M86.9954 90.5508C89.763 90.5508 92.0065 88.3073 92.0065 85.5397C92.0065 82.7722 89.763 80.5287 86.9954 80.5287C84.2279 80.5287 81.9844 82.7722 81.9844 85.5397C81.9844 88.3073 84.2279 90.5508 86.9954 90.5508Z" fill="#699698"/>
<path opacity="0.61" d="M48.8585 18.2245H40.5507V30.5148H48.8585V18.2245Z" fill="white"/>
<path d="M95.2099 68.4252C104.299 68.4252 111.667 61.0572 111.667 51.9685C111.667 42.8797 104.299 35.5118 95.2099 35.5118C86.1211 35.5118 78.7532 42.8797 78.7532 51.9685C78.7532 61.0572 86.1211 68.4252 95.2099 68.4252Z" fill="#F39A24"/>
<path d="M90.0131 51.7558L93.9915 57.1653L100.407 46.7716" stroke="white" stroke-width="2.03" stroke-linecap="round" stroke-linejoin="round"/>
</svg>
