<svg width="102" height="111" viewBox="0 0 102 111" fill="none" xmlns="http://www.w3.org/2000/svg">
<path d="M83.6721 4.11545H0.833252V110.196H83.6721V4.11545Z" fill="#F4F4F4"/>
<path d="M24.8293 38.0556C24.8293 38.0556 28.9229 30.7353 35.4593 30.1042C41.9957 29.4731 45.1193 29.7637 46.3811 38.7386C47.643 47.7135 48.6429 49.3032 44.2534 50.5205C39.8638 51.7378 41.231 52.443 38.059 53.3068C34.8869 54.1707 21.7197 49.6222 24.8293 38.0556Z" fill="#6C999B"/>
<path opacity="0.05" d="M36.9792 36.6373C36.9792 36.6373 34.2222 39.5191 35.8165 44.0544C37.4109 48.5896 39.8637 52.6123 39.8637 52.6123C39.8637 52.6123 41.0707 51.6622 42.1806 51.2141C42.4776 51.0862 45.9447 50.0776 46.6791 49.3629C47.4135 48.6481 36.9792 36.6373 36.9792 36.6373Z" fill="#232323"/>
<path d="M36.7575 38.256C36.7575 38.256 36.4227 44.3539 42.7504 48.192C49.078 52.0301 57.1727 48.0515 59.5024 41.5739C61.8321 35.0963 47.5365 28.2307 36.7575 38.256Z" fill="#6C999B"/>
<path d="M45.3952 42.6012C45.3952 42.6012 38.4756 44.5909 36.9435 39.5422C35.4115 34.4935 43.5592 26.4813 49.7594 30.0235C49.7594 30.0235 54.1487 27.0644 56.8041 30.5151C59.4595 33.9657 63.6215 41.7072 54.9739 45.3422C46.3263 48.9771 45.3952 42.6012 45.3952 42.6012Z" fill="#6C999B"/>
<path opacity="0.64" d="M45.3952 42.6012C45.3952 42.6012 38.4756 44.5909 36.9435 39.5422C35.4115 34.4935 43.5592 26.4813 49.7594 30.0235C49.7594 30.0235 54.1487 27.0644 56.8041 30.5151C59.4595 33.9657 63.6215 41.7072 54.9739 45.3422C46.3263 48.9771 45.3952 42.6012 45.3952 42.6012Z" fill="white"/>
<path opacity="0.6" d="M46.7686 40.4599C46.7686 40.4599 42.9885 41.5469 42.1509 38.789C41.3133 36.031 45.7681 31.6545 49.1516 33.5909C49.1516 33.5909 51.5488 31.9748 52.9981 33.8557C54.4474 35.7367 56.7225 39.9681 51.9984 41.9536C47.2742 43.9391 46.7686 40.4599 46.7686 40.4599Z" fill="white"/>
<path d="M32.2645 33.6048C32.2645 33.6048 30.8349 29.5909 27.2339 29.1604" stroke="#2F2F39" stroke-width="3.045" stroke-miterlimit="10" stroke-linecap="round"/>
<path opacity="0.05" d="M31.0254 33.0948C31.0254 33.0948 28.0853 35.0365 29.0276 36.2472C29.9699 37.458 33.6209 34.8082 35.3971 33.5036C37.1733 32.1991 36.0241 30.508 31.0254 33.0948Z" fill="#232323"/>
<path d="M30.055 30.4329C30.055 30.4329 19.1355 32.3455 22.3661 43.1768C22.3661 43.1768 36.4717 39.6362 30.055 30.4329Z" fill="#699698"/>
<path d="M45.8261 41.4353C45.8261 41.4353 48.828 36.5511 49.76 30.0249" stroke="#2F2F39" stroke-width="3.045" stroke-miterlimit="10" stroke-linecap="round"/>
<path d="M46.4309 35.5967C46.4309 35.5967 44.085 35.7256 44.35 36.8068C44.615 37.888 46.3027 36.8931 46.4309 35.5967Z" fill="#2F2F39"/>
<path d="M49.5945 36.4748C49.5945 36.4748 49.8594 39.289 51.1466 38.9215C52.4337 38.5539 51.1568 36.5705 49.5945 36.4748Z" fill="#2F2F39"/>
<path opacity="0.19" d="M23.388 41.3844C23.388 41.3844 25.576 34.5165 30.0549 30.4329L30.8691 31.7182C30.8691 31.7182 28.5852 32.367 23.388 41.3844Z" fill="white"/>
<path opacity="0.28" d="M50.6788 59.5861H14.1622V67.1412H50.6788V59.5861Z" fill="#878787"/>
<path d="M70.8259 82.8812H14.1622V90.4363H70.8259V82.8812Z" fill="#B5CFD0"/>
<path d="M42.0705 10.7231C45.0316 10.7231 47.4321 8.32265 47.4321 5.36155C47.4321 2.40045 45.0316 0 42.0705 0C39.1094 0 36.709 2.40045 36.709 5.36155C36.709 8.32265 39.1094 10.7231 42.0705 10.7231Z" fill="#B5CFD0"/>
<path opacity="0.28" d="M70.7429 69.8639H14.1622V79.8649H70.7429V69.8639Z" fill="#878787"/>
<path d="M76.3918 43.4569L81.1562 55.1789L86.194 43.4569H76.3918Z" fill="#F39A24"/>
<path d="M101.833 18.6623H60.7524V47.0859H101.833V18.6623Z" fill="#F39A24"/>
<path d="M75.1403 31.2813L80.3674 38.5083L88.2554 27.2399" stroke="white" stroke-width="3.045" stroke-linecap="round" stroke-linejoin="round"/>
</svg>
